<svg id="Laag_1" data-name="Laag 1" xmlns="http://www.w3.org/2000/svg" xmlns:xlink="http://www.w3.org/1999/xlink" viewBox="0 0 1626.33 1886.03"><defs><style>.cls-1,.cls-7{fill:none;}.cls-2,.cls-4{fill:#5b94c6;stroke:#9e8a66;}.cls-2,.cls-4,.cls-7,.cls-8{stroke-miterlimit:10;}.cls-2,.cls-7{stroke-width:10px;}.cls-3,.cls-8{fill:#fff;}.cls-4{stroke-width:4px;}.cls-5{isolation:isolate;}.cls-6{clip-path:url(#clip-path);}.cls-7{stroke:#6c6c6b;opacity:0.53;}.cls-8{stroke:#e42414;stroke-width:19px;}</style><clipPath id="clip-path" transform="translate(-1072.92 -229.75)"><polygon class="cls-1" points="1663.23 580.04 1676.11 463.22 2195.17 481.05 2182.28 597.86 1663.23 580.04"/></clipPath></defs><title>geslotenBoek</title><path class="cls-2" d="M2363.48,2110.78H1192.87a60.7,60.7,0,0,1-60.7-60.7l168.35-1698a60.7,60.7,0,0,1,60.7-60.7H2531.83a162.42,162.42,0,0,1,162.42,162.42L2525.9,1948.35A162.42,162.42,0,0,1,2363.48,2110.78Z" transform="translate(-1072.92 -229.75)"/><path class="cls-3" d="M2344.4,2081.74H1173.79a60.7,60.7,0,0,1-60.7-60.7L1281.44,323a60.7,60.7,0,0,1,60.7-60.7H2512.75a162.42,162.42,0,0,1,162.42,162.42L2506.83,1919.32A162.42,162.42,0,0,1,2344.4,2081.74Z" transform="translate(-1072.92 -229.75)"/><path class="cls-4" d="M2306.23,2051.17H1135.61a60.7,60.7,0,0,1-60.7-60.7l168.35-1698a60.7,60.7,0,0,1,60.7-60.7H2474.57A162.42,162.42,0,0,1,2637,394.17L2468.65,1888.74A162.42,162.42,0,0,1,2306.23,2051.17Z" transform="translate(-1072.92 -229.75)"/><g class="cls-5"><g class="cls-6"><polyline class="cls-3" points="668.78 235.73 603.2 233.47 602.04 243.98 628.86 244.91 617.14 351.21 629.62 351.64 641.35 245.33 667.62 246.24 668.78 235.73"/><polyline class="cls-3" points="764.88 264.69 725.01 263.32 723.85 273.83 737.46 274.3 729.71 344.53 716.11 344.07 714.95 354.57 754.82 355.94 755.98 345.44 742.2 344.96 749.94 274.72 763.72 275.2 764.88 264.69"/><polyline class="cls-3" points="889.53 268.97 823.95 266.72 822.79 277.23 849.61 278.15 840.71 358.89 853.19 359.31 862.1 278.58 888.37 279.48 889.53 268.97"/><polyline class="cls-3" points="1002.42 272.85 941.88 270.76 931.81 362.01 992.36 364.09 993.52 353.59 945.46 351.94 949.03 319.54 988.71 320.9 989.87 310.39 950.19 309.03 953.2 281.7 1001.27 283.36 1002.42 272.85"/><polyline class="cls-3" points="1068.57 275.12 1056.08 274.69 1046.02 365.94 1109.37 368.11 1110.53 357.61 1059.66 355.86 1068.57 275.12"/></g></g><line class="cls-7" x1="232.33" y1="51.57" x2="52.65" y2="1747.48"/><circle class="cls-8" cx="420.39" cy="292.16" r="78.34"/></svg>